<?xml version="1.0" encoding="UTF-8" standalone="no"?>
<!-- Created with Inkscape (http://www.inkscape.org/) -->

<svg
   xmlns:dc="http://purl.org/dc/elements/1.1/"
   xmlns:cc="http://creativecommons.org/ns#"
   xmlns:rdf="http://www.w3.org/1999/02/22-rdf-syntax-ns#"
   xmlns:svg="http://www.w3.org/2000/svg"
   xmlns="http://www.w3.org/2000/svg"
   xmlns:sodipodi="http://sodipodi.sourceforge.net/DTD/sodipodi-0.dtd"
   xmlns:inkscape="http://www.inkscape.org/namespaces/inkscape"
   width="210mm"
   height="297mm"
   viewBox="0 0 210 297"
   version="1.1"
   id="svg8"
   inkscape:version="0.92.3 (2405546, 2018-03-11)"
   sodipodi:docname="icon.svg">
  <defs
     id="defs2">
    <inkscape:perspective
       sodipodi:type="inkscape:persp3d"
       inkscape:vp_x="0 : 148.5 : 1"
       inkscape:vp_y="0 : 1000 : 0"
       inkscape:vp_z="210 : 148.5 : 1"
       inkscape:persp3d-origin="105 : 99 : 1"
       id="perspective3713" />
  </defs>
  <sodipodi:namedview
     id="base"
     pagecolor="#ffffff"
     bordercolor="#666666"
     borderopacity="1.0"
     inkscape:pageopacity="0.0"
     inkscape:pageshadow="2"
     inkscape:zoom="0.7"
     inkscape:cx="571.55556"
     inkscape:cy="928.71406"
     inkscape:document-units="mm"
     inkscape:current-layer="layer1"
     showgrid="false"
     showguides="false"
     inkscape:snap-bbox="true"
     inkscape:snap-bbox-midpoints="true"
     inkscape:window-width="1920"
     inkscape:window-height="1017"
     inkscape:window-x="-8"
     inkscape:window-y="-8"
     inkscape:window-maximized="1" />
  <metadata
     id="metadata5">
    <rdf:RDF>
      <cc:Work
         rdf:about="">
        <dc:format>image/svg+xml</dc:format>
        <dc:type
           rdf:resource="http://purl.org/dc/dcmitype/StillImage" />
        <dc:title></dc:title>
      </cc:Work>
    </rdf:RDF>
  </metadata>
  <g
     inkscape:label="Layer 1"
     inkscape:groupmode="layer"
     id="layer1">
    <circle
       style="fill:none;stroke:#4552d2;stroke-width:6.09523773;stroke-miterlimit:4;stroke-dasharray:none;stroke-opacity:0.72941176"
       id="path4603"
       cx="64"
       cy="64"
       r="60.952381" />
    <ellipse
       style="fill:#373b52;fill-opacity:1;stroke:#00ffe4;stroke-width:0;stroke-miterlimit:4;stroke-dasharray:none;stroke-opacity:1"
       id="path4605"
       cx="64"
       cy="64"
       rx="57.904762"
       ry="57.904758" />
    <path
       style="fill:#ffffff;fill-opacity:1;stroke-width:0.17722708"
       d="m 64.47824,105.93312 c -0.416836,-0.19583 -0.611326,-0.51035 -0.990136,-1.60117 -0.696856,-2.00666 -1.062562,-3.92915 -1.062562,-5.585775 0,-1.029772 -0.07144,-1.491943 -0.238112,-1.540691 -0.13094,-0.0383 -1.22381,-0.14881 -2.42857,-0.245604 C 52.550028,96.38074 46.51332,94.273357 41.619042,90.627364 36.293536,86.660126 32.136098,79.922185 30.884832,73.23048 c -0.24009,-1.283977 -0.234208,-1.457729 0.06738,-1.989511 0.242165,-0.427022 0.51375,-0.627268 1.01664,-0.74962 L 32.655048,70.324407 32.29446,69.59191 c -1.405816,-2.855768 -1.950132,-5.228795 -1.950132,-8.50188 0,-2.801094 0.258896,-4.302842 1.11704,-6.479906 0.854486,-2.167745 2.766562,-5.146214 3.449302,-5.373022 0.16936,-0.05627 1.107872,-0.102282 2.085603,-0.102282 h 1.777695 l 0.128121,-1.277972 c 0.520067,-5.187386 2.716059,-9.467531 6.718143,-13.094138 1.687468,-1.529147 2.373968,-1.855081 3.461658,-1.64351 0.872604,0.169719 0.802814,0.221738 1.563826,-1.165366 1.749456,-3.18876 5.972704,-7.283769 9.752088,-9.455972 1.499928,-0.862087 1.891122,-0.87371 3.602452,-0.107054 5.027272,2.252179 9.339094,5.730322 11.597638,9.35527 0.667782,1.071782 0.83263,1.228579 1.291694,1.228579 0.705258,0 1.869065,0.701245 3.570662,2.151481 3.79553,3.234858 6.166812,7.354251 6.919178,12.019989 0.1088,0.674771 0.225828,1.251084 0.260022,1.280695 0.0342,0.0296 0.887682,-0.03642 1.896618,-0.146746 1.220198,-0.133427 2.008882,-0.147487 2.355464,-0.04194 1.176056,0.358062 3.454792,3.573292 4.540398,6.406375 1.522788,3.974 1.58026,8.329649 0.16564,12.553936 -0.3875,1.157139 -0.437872,1.482715 -0.238296,1.540301 0.1392,0.04018 0.501474,0.288097 0.8051,0.550948 0.544362,0.471264 0.550266,0.496429 0.423976,1.807407 -0.62552,6.493315 -3.949996,13.162584 -8.749942,17.553364 -3.439028,3.145872 -7.350496,5.311359 -12.127181,6.713919 -3.031723,0.890192 -5.231057,1.261983 -9.952381,1.682412 l -1.09524,0.09754 v 0.775736 c 0,1.267287 0.362128,3.389086 0.863568,5.059866 0.594302,1.9802 0.589114,2.14278 -0.087,2.72812 -0.613412,0.53104 -1.173886,0.59535 -1.961956,0.2251 z M 63.065082,92.99979 c 0.536452,-1.802816 1.801378,-2.36621 2.994158,-1.333592 0.60821,0.526543 0.657036,0.76533 0.351356,1.71837 -0.11182,0.348609 -0.15886,0.672284 -0.1046,0.719275 0.15538,0.134497 3.839504,-0.269565 5.833838,-0.639812 7.489362,-1.390448 13.04275,-4.60855 17.080386,-9.89782 1.507594,-1.974927 2.447686,-3.718596 3.462402,-6.421988 0.746184,-1.987987 1.538434,-5.155489 1.333792,-5.332652 -0.1564,-0.135395 -3.0989,0.222325 -6.067058,0.737597 -3.149112,0.546681 -6.777214,1.538108 -9.142854,2.498403 -2.434696,0.988327 -2.956706,0.928593 -4.09524,-0.46865 -2.19859,-2.698174 -5.447876,-5.114108 -9.44294,-7.021079 l -1.252462,-0.597841 -1.529748,0.866341 c -3.670676,2.0788 -6.700538,4.605318 -8.293404,6.915639 C 52.92181,76.585315 52.534442,76.67164 49.69,75.745412 45.899424,74.511099 39.21195,73.375033 35.736716,73.375033 c -1.557218,0 -1.522476,-0.09109 -0.816124,2.139824 2.29674,7.253999 7.13831,12.806286 13.794924,15.819952 3.014002,1.364534 5.76285,2.063145 10.662412,2.709806 0.261914,0.03457 1.121492,0.07296 1.910194,0.08531 l 1.434002,0.0225 z m -10.744,-21.067631 c 0.530584,-0.612187 1.742764,-1.794107 2.693728,-2.626488 l 1.72903,-1.51342 -0.404688,-1.351599 C 54.72889,61.062674 49.834924,55.817502 44.398338,53.64293 42.299184,52.803291 39.940434,52.233766 37.62867,52.008373 l -1.082588,-0.105549 -0.655388,1.130707 c -1.558114,2.688122 -2.227074,5.126012 -2.227022,8.115924 4.6e-5,2.83506 0.659098,5.354521 2.126606,8.129704 0.61116,1.155751 0.818004,1.285184 2.063834,1.291406 2.18145,0.01103 9.643936,1.335636 11.904764,2.113325 0.52381,0.180172 1.097536,0.335194 1.274946,0.344474 0.18884,0.0098 0.722542,-0.444627 1.28726,-1.096205 z m 26.189744,0.03806 c 2.890264,-1.106577 8.749912,-2.454816 12.200432,-2.80719 0.62857,-0.06415 1.280908,-0.178703 1.449648,-0.254453 0.40863,-0.183481 1.416274,-2.854042 1.805232,-4.784479 0.417482,-2.071989 0.279742,-5.453805 -0.298208,-7.321474 -0.482962,-1.560749 -1.441844,-3.54625 -2.314928,-4.793392 -0.74414,-1.062956 -0.825076,-1.074722 -3.440912,-0.500263 -5.922528,1.300635 -10.60044,4.560617 -13.649876,9.51243 -0.971738,1.577952 -2.034432,4.069574 -2.33199,5.467637 l -0.234238,1.100554 2.18758,1.808514 c 1.203166,0.994682 2.395888,2.073282 2.650486,2.396896 0.254598,0.323607 0.559386,0.588884 0.6773,0.589507 0.11792,6.58e-4 0.702674,-0.185829 1.299461,-0.41431 z m -16.897206,-7.0875 c 1.168028,-0.621938 1.902352,-0.906946 2.336756,-0.906946 0.403072,0 1.34701,0.32987 2.595276,0.906946 1.078988,0.498823 1.99493,0.906948 2.03543,0.906948 0.04052,0 0.227386,-0.500887 0.41533,-1.113072 0.713786,-2.325139 2.29689,-5.31424 3.801312,-7.177355 0.774542,-0.959216 0.865912,-1.16886 0.865912,-1.986775 0,-2.068202 -0.972948,-4.626578 -2.529958,-6.652554 -1.085986,-1.413081 -3.633414,-3.603253 -5.601874,-4.816257 -2.48182,-1.529345 -2.351996,-1.502549 -3.629642,-0.749287 -2.46041,1.450579 -5.293764,4.371268 -6.528934,6.730183 -0.7148,1.365109 -1.316386,3.129279 -1.593212,4.672109 l -0.229942,1.281484 1.252252,1.42978 c 2.01261,2.297942 4.00443,5.607697 4.593458,7.63284 0.1198,0.411896 0.284588,0.748904 0.366184,0.748904 0.08158,0 0.914834,-0.408125 1.85164,-0.906948 z M 51.061062,51.816284 c 0.978998,-3.015408 2.94799,-6.019774 5.482404,-8.365275 L 57.708474,42.372842 56.8831,41.426433 c -1.159202,-1.329187 -3.93727,-3.697095 -5.150734,-4.390261 -0.561612,-0.32081 -1.427946,-0.676269 -1.925188,-0.789907 l -0.90408,-0.206629 -0.783354,0.652415 c -3.271732,2.724861 -5.67733,7.500825 -5.755496,11.426698 l -0.03396,1.704802 1.451508,0.460652 c 1.829528,0.580617 4.143702,1.620014 5.500874,2.470689 0.576188,0.361155 1.094728,0.659038 1.152306,0.661961 0.05756,0.0029 0.33931,-0.717332 0.62607,-1.600579 z m 26.645196,0.931189 c 1.25262,-0.914402 3.851298,-2.310526 5.359378,-2.879296 l 1.238052,-0.466933 -0.1011,-0.834048 c -0.341814,-2.819856 -1.382402,-5.621032 -2.921008,-7.863132 -1.004752,-1.464153 -2.788121,-3.375098 -3.814604,-4.087492 -0.739898,-0.513501 -0.861614,-0.546544 -1.384228,-0.375768 -1.93725,0.633044 -5.389786,3.217872 -6.86663,5.140877 l -0.69435,0.904112 1.60225,1.404481 c 2.826124,2.477292 4.852754,5.328326 5.950798,8.371488 0.269988,0.748233 0.539534,1.360422 0.599016,1.360422 0.0595,0 0.524076,-0.303637 1.03243,-0.674711 z M 61.539068,40.065315 c 0.55688,-0.272092 1.200886,-0.494697 1.431116,-0.494697 0.230248,0 0.941016,0.228306 1.579522,0.50734 0.638506,0.27903 1.220668,0.445998 1.293692,0.371025 0.07302,-0.07496 0.576862,-0.664965 1.119632,-1.311092 1.192036,-1.419034 3.35742,-3.22993 5.009746,-4.189623 0.668068,-0.388022 1.2453,-0.726703 1.282736,-0.75263 0.10658,-0.07382 -1.107338,-1.867419 -1.942446,-2.869995 -1.602386,-1.923731 -5.105432,-4.525901 -7.956068,-5.910016 l -1.068542,-0.518826 -1.278422,0.837838 c -2.826914,1.852672 -5.577958,4.633493 -7.116286,7.193318 l -0.807036,1.342935 1.193224,0.787181 c 1.790966,1.181516 3.6768,2.794292 4.939118,4.223971 0.620606,0.702886 1.168672,1.277972 1.217934,1.277972 0.04926,0 0.545196,-0.222633 1.10208,-0.494701 z"
       id="path6099"
       inkscape:connector-curvature="0" />
  </g>
</svg>
